HIERARCHY
ROOT Hips
{
  OFFSET 0.000000 100.000000 0.000000
  CHANNELS 6 Xposition Yposition Zposition Zrotation Xrotation Yrotation
  JOINT Spine
  {
    OFFSET 0.000000 15.000000 0.000000
    CHANNELS 3 Zrotation Xrotation Yrotation
    JOINT Neck
    {
      OFFSET 0.000000 30.000000 0.000000
      CHANNELS 3 Zrotation Xrotation Yrotation
      JOINT Head
      {
        OFFSET 0.000000 10.000000 0.000000
        CHANNELS 3 Zrotation Xrotation Yrotation
        End Site
        {
          OFFSET 0.000000 15.000000 0.000000
        }
      }
    }
    JOINT LeftShoulder
    {
      OFFSET 15.000000 25.000000 0.000000
      CHANNELS 3 Zrotation Xrotation Yrotation
      JOINT LeftElbow
      {
        OFFSET 28.000000 0.000000 0.000000
        CHANNELS 3 Zrotation Xrotation Yrotation
        JOINT LeftWrist
        {
          OFFSET 24.000000 0.000000 0.000000
          CHANNELS 3 Zrotation Xrotation Yrotation
          End Site
          {
            OFFSET 12.000000 0.000000 0.000000
          }
        }
      }
    }
    JOINT RightShoulder
    {
      OFFSET -15.000000 25.000000 0.000000
      CHANNELS 3 Zrotation Xrotation Yrotation
      JOINT RightElbow
      {
        OFFSET -28.000000 0.000000 0.000000
        CHANNELS 3 Zrotation Xrotation Yrotation
        JOINT RightWrist
        {
          OFFSET -24.000000 0.000000 0.000000
          CHANNELS 3 Zrotation Xrotation Yrotation
          End Site
          {
            OFFSET -12.000000 0.000000 0.000000
          }
        }
      }
    }
  }
  JOINT LeftHip
  {
    OFFSET 10.000000 0.000000 0.000000
    CHANNELS 3 Zrotation Xrotation Yrotation
    JOINT LeftKnee
    {
      OFFSET 0.000000 -42.000000 0.000000
      CHANNELS 3 Zrotation Xrotation Yrotation
      JOINT LeftAnkle
      {
        OFFSET 0.000000 -42.000000 0.000000
        CHANNELS 3 Zrotation Xrotation Yrotation
        End Site
        {
          OFFSET 0.000000 -7.000000 12.000000
        }
      }
    }
  }
  JOINT RightHip
  {
    OFFSET -10.000000 0.000000 0.000000
    CHANNELS 3 Zrotation Xrotation Yrotation
    JOINT RightKnee
    {
      OFFSET 0.000000 -42.000000 0.000000
      CHANNELS 3 Zrotation Xrotation Yrotation
      JOINT RightAnkle
      {
        OFFSET 0.000000 -42.000000 0.000000
        CHANNELS 3 Zrotation Xrotation Yrotation
        End Site
        {
          OFFSET 0.000000 -7.000000 12.000000
        }
      }
    }
  }
}
MOTION
Frames: 13
Frame Time: 0.03333333333333333
62.946528 51.998886 0.023761 -120.988470 -65.264625 97.075631 0.000000 0.000000 0.000000 -33.044112 1.105356 -127.102283 1.242872 -16.262696 -2.413453 6.736608 -15.852509 81.175619 40.519039 -9.087714 38.605443 0.644985 5.806323 -3.107084 -15.512749 -13.799134 -21.965265 5.023386 6.816929 -33.414784 16.330824 6.763272 -21.425318 25.033058 42.040688 55.196924 -0.549703 7.481294 2.511886 47.537803 40.749114 55.812657 -39.605102 25.495762 -39.843909 -2.632409 -4.527542 3.387915 10.928344 0.119577 4.650208
62.811908 51.610671 0.020956 -126.038933 -66.860979 104.804191 0.000000 0.000000 0.000000 -64.580716 23.692574 -127.427373 1.485446 -22.949903 -4.846223 4.559834 -10.717767 57.300695 36.588408 -14.934370 14.819295 -1.221903 3.942395 -0.485085 -10.886941 -8.718110 -18.071535 4.012725 7.916048 -22.333156 26.999869 25.979793 2.834760 28.592522 43.764004 68.603707 -0.358045 5.497980 2.001354 45.939867 40.912441 51.404778 -27.866901 18.095716 -28.048631 -0.976942 -3.960589 4.385632 0.445585 6.608266 -0.616110
62.875304 51.489559 0.022469 -129.799102 -68.048443 110.557685 0.000000 0.000000 0.000000 -54.714392 31.940263 -93.844336 20.159041 -42.441949 -29.257799 3.114415 -7.448351 41.077754 34.521305 -16.654591 -4.021617 -2.020080 4.021344 1.782420 -7.420962 -5.867145 -16.851201 6.464039 14.923461 -11.133164 47.166246 31.544308 32.389264 31.625948 43.768355 78.945072 -0.303226 3.975239 1.603306 44.230410 41.488912 47.669929 -19.597100 12.802884 -19.776660 0.140154 -3.796510 4.876547 -6.722507 12.186830 -3.505727
62.657353 51.814446 0.027278 -134.334216 -69.491094 117.478995 0.000000 0.000000 0.000000 -44.828021 6.115204 -62.324705 -19.665458 -49.342009 7.344129 2.387567 -5.661255 28.469737 27.123788 -12.718099 -10.633637 -1.322377 3.806196 2.264516 -27.869617 7.159735 -41.843739 9.555970 24.364475 -15.088185 34.089143 24.583222 21.445747 27.511942 39.427440 84.479684 -0.309938 2.858646 1.442263 38.444482 37.773647 40.692973 -13.705026 8.958391 -13.754262 0.897292 -3.587433 5.160882 -17.279506 15.313202 -9.397922
62.432238 51.662837 0.026564 -138.262853 -70.596511 123.346339 0.000000 0.000000 0.000000 -30.795145 -0.754288 -43.713521 -61.246267 -57.041871 51.513453 5.997013 -7.071791 15.265474 21.170898 2.262310 -10.852533 -1.111270 1.973900 2.081796 -27.621923 20.182578 -16.728555 6.825105 19.321841 -11.189409 23.977875 17.261399 14.609398 17.834638 32.803247 81.306576 -0.265206 2.224297 1.789238 32.151190 33.140797 34.715158 -9.480102 6.177740 -11.312438 1.179404 -3.357726 4.813895 -24.776132 18.451714 -14.616918
62.249190 51.216517 0.025520 -142.094552 -71.601487 128.980301 0.000000 0.000000 0.000000 -30.170758 -10.570038 -27.958668 -3.058950 -62.415033 -6.692499 7.414264 -3.599143 5.981049 16.337659 9.498986 -9.590725 -0.898542 0.863421 1.749368 -32.152683 13.903463 10.197195 4.763584 14.000126 -7.799995 16.850151 12.083507 10.024622 5.285452 23.381634 73.419535 -0.264985 1.745318 2.359188 23.239863 25.202937 28.114252 -7.889000 6.796661 -16.640406 1.148209 -3.087472 4.223364 -26.354341 21.015633 -16.604510
62.186816 50.884946 0.027213 -144.947163 -72.383145 133.189317 0.000000 0.000000 0.000000 -31.615246 -14.088419 -17.438548 31.930939 -67.283978 -43.022602 7.939300 -1.721091 0.049847 12.840960 14.950608 -8.199534 -0.735971 -0.016389 1.580818 -34.932273 15.090551 27.525714 3.023675 11.183130 -4.596751 11.910682 8.476801 6.651437 -6.623832 16.753609 68.946205 -0.245443 1.478830 2.773884 17.271145 20.213539 24.285869 -7.970167 8.436963 -19.950049 1.109238 -2.840752 3.611826 -26.408655 22.861492 -16.974373
61.636400 50.207849 0.021103 -147.253313 -73.250517 136.719653 0.000000 0.000000 0.000000 -37.814300 -11.875549 -11.217928 39.718789 -68.947714 -53.548236 10.842612 1.404771 -4.618301 12.152000 24.144786 -5.646082 -0.713003 -0.993837 1.326539 -45.105334 12.729538 42.779364 0.663319 9.019953 0.119995 8.588839 6.564863 3.882569 -14.218054 3.515071 64.936395 -0.203792 0.962160 1.962274 12.667474 15.405914 20.025221 -12.620005 14.739718 -29.833486 0.934054 -2.440720 2.795010 -24.883143 25.232858 -16.184766
61.242256 49.706475 0.020456 -148.865533 -73.900724 139.213811 0.000000 0.000000 0.000000 -44.974684 -8.672827 -7.637626 42.764932 -68.320362 -59.278198 11.413745 6.334186 -8.780592 9.907401 24.163623 -4.804120 -1.287751 -4.050222 1.507549 -53.180525 10.863391 52.808395 -1.025108 7.845759 3.905992 6.186464 4.744689 2.246969 -19.593906 -8.321472 61.077725 -0.157268 0.636918 1.359736 10.873492 13.416487 20.750263 -17.836050 21.472557 -37.575116 0.803031 -2.227753 2.239169 -22.476243 26.120551 -14.621064
60.942018 49.246655 0.022815 -149.298780 -74.083926 139.921825 0.000000 0.000000 0.000000 -54.099974 -1.702831 -8.729281 40.700532 -65.562765 -60.737156 9.348475 10.103197 -10.620932 7.507152 19.977980 -4.699785 -1.464924 -5.084701 1.244230 -61.478698 22.353465 44.635117 -4.831988 15.064872 12.191456 4.636343 3.350915 1.034402 -26.763163 -20.362175 63.740569 -0.154836 0.317495 0.881094 9.325389 12.890545 17.720966 -17.764613 24.471495 -35.056792 0.839987 -2.297661 1.814482 -22.966628 29.183213 -16.103123
61.006245 49.070865 0.022772 -149.192683 -74.067789 139.807824 0.000000 0.000000 0.000000 -63.909749 11.237179 -17.917204 32.418833 -59.532758 -53.429732 3.639997 14.762974 -10.589221 5.396288 16.534111 -11.263834 -1.561947 -4.862915 1.874973 -67.461057 27.755496 39.792067 -6.058231 18.462890 14.787944 3.497362 2.438879 0.226822 -32.289341 -29.217034 65.876554 -0.167148 0.060518 0.522062 7.916187 11.730898 15.329673 -16.735103 25.310655 -31.258233 0.806138 -2.048877 1.355155 -22.682731 30.855349 -17.156207
60.429808 47.720210 0.021008 -149.013459 -73.907378 139.494052 0.000000 0.000000 0.000000 -79.250723 24.254576 -35.975429 23.028311 -45.919923 -43.277118 -4.434297 -0.283705 -7.151398 11.755226 19.384238 3.470838 2.319623 5.576061 6.796768 -61.348545 8.987577 18.264539 -24.179921 10.812367 13.095419 2.770805 2.525532 0.237448 -22.018555 -22.828922 47.423140 -0.509544 -1.660896 -0.086695 6.505880 9.904386 12.957991 -34.967949 33.182457 -50.196578 1.379367 -5.445637 2.539786 -27.658978 34.874891 -21.742909
60.171956 47.534990 0.024628 -140.228079 -72.772128 127.888141 0.000000 0.000000 0.000000 -93.339811 37.233875 -56.868833 19.943977 -42.296345 -33.844554 -4.484205 -5.413906 -4.652937 8.853939 16.568581 5.186797 1.474283 5.049649 4.588361 -44.240655 10.286595 8.722316 -43.738346 -4.634854 7.522022 1.778574 1.945822 0.151092 -14.923862 -17.251187 34.477934 -0.357883 -1.204125 -0.072257 4.832518 8.105781 10.116734 -39.617442 38.238643 -56.597525 1.912745 -5.735647 2.561327 -43.196538 38.200527 -39.704542
